<?xml version="1.0" encoding="UTF-8"?>
<svg width="80px" height="80px" viewBox="0 0 80 80" version="1.1" xmlns="http://www.w3.org/2000/svg" xmlns:xlink="http://www.w3.org/1999/xlink">
    <!-- Generator: Sketch 43.2 (39069) - http://www.bohemiancoding.com/sketch -->
    <title>no mic</title>
    <desc>Created with Sketch.</desc>
    <defs></defs>
    <g id="Page-2" stroke="none" stroke-width="1" fill="none" fill-rule="evenodd">
        <g id="no-mic">
            <circle id="Oval" stroke="#0AD1BD" stroke-width="10" cx="40" cy="40" r="25"></circle>
            <path d="M23.5,55.5 L55.5,24.5" id="Line" stroke="#0AD1BD" stroke-width="10" stroke-linecap="square"></path>
            <path d="M36.6956522,58.75 L42.3043478,58.75 C42.8184783,58.75 43.2391304,58.328125 43.2391304,57.8125 C43.2391304,57.296875 42.8184783,56.875 42.3043478,56.875 L36.6956522,56.875 C36.1815217,56.875 35.7608696,57.296875 35.7608696,57.8125 C35.7608696,58.328125 36.1815217,58.75 36.6956522,58.75 L36.6956522,58.75 Z M53.5217391,40 C53.0057391,40 52.5869565,40.42 52.5869565,40.9375 C52.5869565,41.455 53.0057391,41.875 53.5217391,41.875 C54.0377391,41.875 54.4565217,41.455 54.4565217,40.9375 C54.4565217,40.42 54.0377391,40 53.5217391,40 L53.5217391,40 Z M47.9130435,40 C47.3970435,40 46.9782609,40.42 46.9782609,40.9375 C46.9782609,41.455 47.3970435,41.875 47.9130435,41.875 C48.4290435,41.875 48.8478261,41.455 48.8478261,40.9375 C48.8478261,40.42 48.4290435,40 47.9130435,40 L47.9130435,40 Z M42.3043478,40 C41.7883478,40 41.3695652,40.42 41.3695652,40.9375 C41.3695652,41.455 41.7883478,41.875 42.3043478,41.875 C42.8203478,41.875 43.2391304,41.455 43.2391304,40.9375 C43.2391304,40.42 42.8203478,40 42.3043478,40 L42.3043478,40 Z M36.6956522,40 C36.1796522,40 35.7608696,40.42 35.7608696,40.9375 C35.7608696,41.455 36.1796522,41.875 36.6956522,41.875 C37.2116522,41.875 37.6304348,41.455 37.6304348,40.9375 C37.6304348,40.42 37.2116522,40 36.6956522,40 L36.6956522,40 Z M25.4782609,40 C24.9622609,40 24.5434783,40.42 24.5434783,40.9375 C24.5434783,41.455 24.9622609,41.875 25.4782609,41.875 C25.9942609,41.875 26.4130435,41.455 26.4130435,40.9375 C26.4130435,40.42 25.9942609,40 25.4782609,40 L25.4782609,40 Z M31.0869565,40 C30.5709565,40 30.1521739,40.42 30.1521739,40.9375 C30.1521739,41.455 30.5709565,41.875 31.0869565,41.875 C31.6029565,41.875 32.0217391,41.455 32.0217391,40.9375 C32.0217391,40.42 31.6029565,40 31.0869565,40 L31.0869565,40 Z M50.7173913,43.75 C50.2013913,43.75 49.7826087,44.17 49.7826087,44.6875 C49.7826087,45.205 50.2013913,45.625 50.7173913,45.625 C51.2333913,45.625 51.6521739,45.205 51.6521739,44.6875 C51.6521739,44.17 51.2333913,43.75 50.7173913,43.75 L50.7173913,43.75 Z M45.1086957,43.75 C44.5926957,43.75 44.173913,44.17 44.173913,44.6875 C44.173913,45.205 44.5926957,45.625 45.1086957,45.625 C45.6246957,45.625 46.0434783,45.205 46.0434783,44.6875 C46.0434783,44.17 45.6246957,43.75 45.1086957,43.75 L45.1086957,43.75 Z M39.5,43.75 C38.984,43.75 38.5652174,44.17 38.5652174,44.6875 C38.5652174,45.205 38.984,45.625 39.5,45.625 C40.016,45.625 40.4347826,45.205 40.4347826,44.6875 C40.4347826,44.17 40.016,43.75 39.5,43.75 L39.5,43.75 Z M33.8913043,43.75 C33.3753043,43.75 32.9565217,44.17 32.9565217,44.6875 C32.9565217,45.205 33.3753043,45.625 33.8913043,45.625 C34.4073043,45.625 34.826087,45.205 34.826087,44.6875 C34.826087,44.17 34.4073043,43.75 33.8913043,43.75 L33.8913043,43.75 Z M28.2826087,43.75 C27.7666087,43.75 27.3478261,44.17 27.3478261,44.6875 C27.3478261,45.205 27.7666087,45.625 28.2826087,45.625 C28.7986087,45.625 29.2173913,45.205 29.2173913,44.6875 C29.2173913,44.17 28.7986087,43.75 28.2826087,43.75 L28.2826087,43.75 Z M50.7173913,36.25 C50.2013913,36.25 49.7826087,36.67 49.7826087,37.1875 C49.7826087,37.705 50.2013913,38.125 50.7173913,38.125 C51.2333913,38.125 51.6521739,37.705 51.6521739,37.1875 C51.6521739,36.67 51.2333913,36.25 50.7173913,36.25 L50.7173913,36.25 Z M45.1086957,36.25 C44.5926957,36.25 44.173913,36.67 44.173913,37.1875 C44.173913,37.705 44.5926957,38.125 45.1086957,38.125 C45.6246957,38.125 46.0434783,37.705 46.0434783,37.1875 C46.0434783,36.67 45.6246957,36.25 45.1086957,36.25 L45.1086957,36.25 Z M39.5,36.25 C38.984,36.25 38.5652174,36.67 38.5652174,37.1875 C38.5652174,37.705 38.984,38.125 39.5,38.125 C40.016,38.125 40.4347826,37.705 40.4347826,37.1875 C40.4347826,36.67 40.016,36.25 39.5,36.25 L39.5,36.25 Z M33.8913043,36.25 C33.3753043,36.25 32.9565217,36.67 32.9565217,37.1875 C32.9565217,37.705 33.3753043,38.125 33.8913043,38.125 C34.4073043,38.125 34.826087,37.705 34.826087,37.1875 C34.826087,36.67 34.4073043,36.25 33.8913043,36.25 L33.8913043,36.25 Z M28.2826087,36.25 C27.7666087,36.25 27.3478261,36.67 27.3478261,37.1875 C27.3478261,37.705 27.7666087,38.125 28.2826087,38.125 C28.7986087,38.125 29.2173913,37.705 29.2173913,37.1875 C29.2173913,36.67 28.7986087,36.25 28.2826087,36.25 L28.2826087,36.25 Z M53.5217391,32.5 C53.0057391,32.5 52.5869565,32.92 52.5869565,33.4375 C52.5869565,33.955 53.0057391,34.375 53.5217391,34.375 C54.0377391,34.375 54.4565217,33.955 54.4565217,33.4375 C54.4565217,32.92 54.0377391,32.5 53.5217391,32.5 L53.5217391,32.5 Z M47.9130435,32.5 C47.3970435,32.5 46.9782609,32.92 46.9782609,33.4375 C46.9782609,33.955 47.3970435,34.375 47.9130435,34.375 C48.4290435,34.375 48.8478261,33.955 48.8478261,33.4375 C48.8478261,32.92 48.4290435,32.5 47.9130435,32.5 L47.9130435,32.5 Z M42.3043478,32.5 C41.7883478,32.5 41.3695652,32.92 41.3695652,33.4375 C41.3695652,33.955 41.7883478,34.375 42.3043478,34.375 C42.8203478,34.375 43.2391304,33.955 43.2391304,33.4375 C43.2391304,32.92 42.8203478,32.5 42.3043478,32.5 L42.3043478,32.5 Z M36.6956522,32.5 C36.1796522,32.5 35.7608696,32.92 35.7608696,33.4375 C35.7608696,33.955 36.1796522,34.375 36.6956522,34.375 C37.2116522,34.375 37.6304348,33.955 37.6304348,33.4375 C37.6304348,32.92 37.2116522,32.5 36.6956522,32.5 L36.6956522,32.5 Z M25.4782609,32.5 C24.9622609,32.5 24.5434783,32.92 24.5434783,33.4375 C24.5434783,33.955 24.9622609,34.375 25.4782609,34.375 C25.9942609,34.375 26.4130435,33.955 26.4130435,33.4375 C26.4130435,32.92 25.9942609,32.5 25.4782609,32.5 L25.4782609,32.5 Z M31.0869565,32.5 C30.5709565,32.5 30.1521739,32.92 30.1521739,33.4375 C30.1521739,33.955 30.5709565,34.375 31.0869565,34.375 C31.6029565,34.375 32.0217391,33.955 32.0217391,33.4375 C32.0217391,32.92 31.6029565,32.5 31.0869565,32.5 L31.0869565,32.5 Z M50.7173913,28.75 C50.2013913,28.75 49.7826087,29.17 49.7826087,29.6875 C49.7826087,30.205 50.2013913,30.625 50.7173913,30.625 C51.2333913,30.625 51.6521739,30.205 51.6521739,29.6875 C51.6521739,29.17 51.2333913,28.75 50.7173913,28.75 L50.7173913,28.75 Z M45.1086957,28.75 C44.5926957,28.75 44.173913,29.17 44.173913,29.6875 C44.173913,30.205 44.5926957,30.625 45.1086957,30.625 C45.6246957,30.625 46.0434783,30.205 46.0434783,29.6875 C46.0434783,29.17 45.6246957,28.75 45.1086957,28.75 L45.1086957,28.75 Z M39.5,28.75 C38.984,28.75 38.5652174,29.17 38.5652174,29.6875 C38.5652174,30.205 38.984,30.625 39.5,30.625 C40.016,30.625 40.4347826,30.205 40.4347826,29.6875 C40.4347826,29.17 40.016,28.75 39.5,28.75 L39.5,28.75 Z M33.8913043,28.75 C33.3753043,28.75 32.9565217,29.17 32.9565217,29.6875 C32.9565217,30.205 33.3753043,30.625 33.8913043,30.625 C34.4073043,30.625 34.826087,30.205 34.826087,29.6875 C34.826087,29.17 34.4073043,28.75 33.8913043,28.75 L33.8913043,28.75 Z M28.2826087,28.75 C27.7666087,28.75 27.3478261,29.17 27.3478261,29.6875 C27.3478261,30.205 27.7666087,30.625 28.2826087,30.625 C28.7986087,30.625 29.2173913,30.205 29.2173913,29.6875 C29.2173913,29.17 28.7986087,28.75 28.2826087,28.75 L28.2826087,28.75 Z M53.5217391,25 C53.0057391,25 52.5869565,25.42 52.5869565,25.9375 C52.5869565,26.455 53.0057391,26.875 53.5217391,26.875 C54.0377391,26.875 54.4565217,26.455 54.4565217,25.9375 C54.4565217,25.42 54.0377391,25 53.5217391,25 L53.5217391,25 Z M47.9130435,25 C47.3970435,25 46.9782609,25.42 46.9782609,25.9375 C46.9782609,26.455 47.3970435,26.875 47.9130435,26.875 C48.4290435,26.875 48.8478261,26.455 48.8478261,25.9375 C48.8478261,25.42 48.4290435,25 47.9130435,25 L47.9130435,25 Z M42.3043478,25 C41.7883478,25 41.3695652,25.42 41.3695652,25.9375 C41.3695652,26.455 41.7883478,26.875 42.3043478,26.875 C42.8203478,26.875 43.2391304,26.455 43.2391304,25.9375 C43.2391304,25.42 42.8203478,25 42.3043478,25 L42.3043478,25 Z M36.6956522,25 C36.1796522,25 35.7608696,25.42 35.7608696,25.9375 C35.7608696,26.455 36.1796522,26.875 36.6956522,26.875 C37.2116522,26.875 37.6304348,26.455 37.6304348,25.9375 C37.6304348,25.42 37.2116522,25 36.6956522,25 L36.6956522,25 Z M25.4782609,25 C24.9622609,25 24.5434783,25.42 24.5434783,25.9375 C24.5434783,26.455 24.9622609,26.875 25.4782609,26.875 C25.9942609,26.875 26.4130435,26.455 26.4130435,25.9375 C26.4130435,25.42 25.9942609,25 25.4782609,25 L25.4782609,25 Z M31.0869565,25 C30.5709565,25 30.1521739,25.42 30.1521739,25.9375 C30.1521739,26.455 30.5709565,26.875 31.0869565,26.875 C31.6029565,26.875 32.0217391,26.455 32.0217391,25.9375 C32.0217391,25.42 31.6029565,25 31.0869565,25 L31.0869565,25 Z M50.7173913,21.25 C50.2013913,21.25 49.7826087,21.67 49.7826087,22.1875 C49.7826087,22.705 50.2013913,23.125 50.7173913,23.125 C51.2333913,23.125 51.6521739,22.705 51.6521739,22.1875 C51.6521739,21.67 51.2333913,21.25 50.7173913,21.25 L50.7173913,21.25 Z M45.1086957,21.25 C44.5926957,21.25 44.173913,21.67 44.173913,22.1875 C44.173913,22.705 44.5926957,23.125 45.1086957,23.125 C45.6246957,23.125 46.0434783,22.705 46.0434783,22.1875 C46.0434783,21.67 45.6246957,21.25 45.1086957,21.25 L45.1086957,21.25 Z M39.5,21.25 C38.984,21.25 38.5652174,21.67 38.5652174,22.1875 C38.5652174,22.705 38.984,23.125 39.5,23.125 C40.016,23.125 40.4347826,22.705 40.4347826,22.1875 C40.4347826,21.67 40.016,21.25 39.5,21.25 L39.5,21.25 Z M33.8913043,21.25 C33.3753043,21.25 32.9565217,21.67 32.9565217,22.1875 C32.9565217,22.705 33.3753043,23.125 33.8913043,23.125 C34.4073043,23.125 34.826087,22.705 34.826087,22.1875 C34.826087,21.67 34.4073043,21.25 33.8913043,21.25 L33.8913043,21.25 Z M28.2826087,21.25 C27.7666087,21.25 27.3478261,21.67 27.3478261,22.1875 C27.3478261,22.705 27.7666087,23.125 28.2826087,23.125 C28.7986087,23.125 29.2173913,22.705 29.2173913,22.1875 C29.2173913,21.67 28.7986087,21.25 28.2826087,21.25 L28.2826087,21.25 Z M53.5217391,17.5 C53.0057391,17.5 52.5869565,17.92 52.5869565,18.4375 C52.5869565,18.955 53.0057391,19.375 53.5217391,19.375 C54.0377391,19.375 54.4565217,18.955 54.4565217,18.4375 C54.4565217,17.92 54.0377391,17.5 53.5217391,17.5 L53.5217391,17.5 Z M47.9130435,17.5 C47.3970435,17.5 46.9782609,17.92 46.9782609,18.4375 C46.9782609,18.955 47.3970435,19.375 47.9130435,19.375 C48.4290435,19.375 48.8478261,18.955 48.8478261,18.4375 C48.8478261,17.92 48.4290435,17.5 47.9130435,17.5 L47.9130435,17.5 Z M42.3043478,17.5 C41.7883478,17.5 41.3695652,17.92 41.3695652,18.4375 C41.3695652,18.955 41.7883478,19.375 42.3043478,19.375 C42.8203478,19.375 43.2391304,18.955 43.2391304,18.4375 C43.2391304,17.92 42.8203478,17.5 42.3043478,17.5 L42.3043478,17.5 Z M36.6956522,17.5 C36.1796522,17.5 35.7608696,17.92 35.7608696,18.4375 C35.7608696,18.955 36.1796522,19.375 36.6956522,19.375 C37.2116522,19.375 37.6304348,18.955 37.6304348,18.4375 C37.6304348,17.92 37.2116522,17.5 36.6956522,17.5 L36.6956522,17.5 Z M25.4782609,17.5 C24.9622609,17.5 24.5434783,17.92 24.5434783,18.4375 C24.5434783,18.955 24.9622609,19.375 25.4782609,19.375 C25.9942609,19.375 26.4130435,18.955 26.4130435,18.4375 C26.4130435,17.92 25.9942609,17.5 25.4782609,17.5 L25.4782609,17.5 Z M31.0869565,17.5 C30.5709565,17.5 30.1521739,17.92 30.1521739,18.4375 C30.1521739,18.955 30.5709565,19.375 31.0869565,19.375 C31.6029565,19.375 32.0217391,18.955 32.0217391,18.4375 C32.0217391,17.92 31.6029565,17.5 31.0869565,17.5 L31.0869565,17.5 Z M50.7173913,13.75 C50.2013913,13.75 49.7826087,14.17 49.7826087,14.6875 C49.7826087,15.205 50.2013913,15.625 50.7173913,15.625 C51.2333913,15.625 51.6521739,15.205 51.6521739,14.6875 C51.6521739,14.17 51.2333913,13.75 50.7173913,13.75 L50.7173913,13.75 Z M45.1086957,13.75 C44.5926957,13.75 44.173913,14.17 44.173913,14.6875 C44.173913,15.205 44.5926957,15.625 45.1086957,15.625 C45.6246957,15.625 46.0434783,15.205 46.0434783,14.6875 C46.0434783,14.17 45.6246957,13.75 45.1086957,13.75 L45.1086957,13.75 Z M39.5,13.75 C38.984,13.75 38.5652174,14.17 38.5652174,14.6875 C38.5652174,15.205 38.984,15.625 39.5,15.625 C40.016,15.625 40.4347826,15.205 40.4347826,14.6875 C40.4347826,14.17 40.016,13.75 39.5,13.75 L39.5,13.75 Z M33.8913043,13.75 C33.3753043,13.75 32.9565217,14.17 32.9565217,14.6875 C32.9565217,15.205 33.3753043,15.625 33.8913043,15.625 C34.4073043,15.625 34.826087,15.205 34.826087,14.6875 C34.826087,14.17 34.4073043,13.75 33.8913043,13.75 L33.8913043,13.75 Z M28.2826087,13.75 C27.7666087,13.75 27.3478261,14.17 27.3478261,14.6875 C27.3478261,15.205 27.7666087,15.625 28.2826087,15.625 C28.7986087,15.625 29.2173913,15.205 29.2173913,14.6875 C29.2173913,14.17 28.7986087,13.75 28.2826087,13.75 L28.2826087,13.75 Z M59.1304348,53.125 L19.8695652,53.125 L19.8695652,49.375 L59.1304348,49.375 L59.1304348,53.125 Z M57.2608696,60.625 L21.7391304,60.625 L21.7391304,55 L57.2608696,55 L57.2608696,60.625 Z M21.7391304,16.5625 C21.7391304,13.9778125 23.8358478,11.875 26.4130435,11.875 L52.5869565,11.875 C55.1641522,11.875 57.2608696,13.9778125 57.2608696,16.5625 L57.2608696,47.5 L21.7391304,47.5 L21.7391304,16.5625 Z M59.1304348,47.5 L59.1304348,16.5625 C59.1304348,12.938125 56.2008261,10 52.5869565,10 L26.4130435,10 C22.7991739,10 19.8695652,12.938125 19.8695652,16.5625 L19.8695652,47.5 L18,47.5 L18,55 L19.8695652,55 L19.8695652,62.5 L27.3478261,66.25 L27.3478261,70 L51.6521739,70 L51.6521739,66.25 L59.1304348,62.5 L59.1304348,55 L61,55 L61,47.5 L59.1304348,47.5 Z" id="Microphone-2" fill="#000000" transform="translate(39.500000, 40.000000) rotate(-7.000000) translate(-39.500000, -40.000000) "></path>
        </g>
    </g>
</svg>