<?xml version="1.0" encoding="UTF-8"?>
<svg width="80px" height="80px" viewBox="0 0 80 80" version="1.1" xmlns="http://www.w3.org/2000/svg" xmlns:xlink="http://www.w3.org/1999/xlink">
    <!-- Generator: Sketch 43.2 (39069) - http://www.bohemiancoding.com/sketch -->
    <title>piano</title>
    <desc>Created with Sketch.</desc>
    <defs></defs>
    <g id="Page-2" stroke="none" stroke-width="1" fill="none" fill-rule="evenodd">
        <g id="piano">
            <path d="M11,15.9953151 C11,13.2364787 13.2402674,11 15.9953151,11 L70.0046849,11 C72.7635213,11 75,13.2402674 75,15.9953151 L75,70.0046849 C75,72.7635213 72.7597326,75 70.0046849,75 L15.9953151,75 C13.2364787,75 11,72.7597326 11,70.0046849 L11,15.9953151 Z M22,11 L22,48.0031246 C22,48.5467697 22.4490268,49 23.0029293,49 L27.9970707,49 C28.5621186,49 29,48.5536837 29,48.0031246 L29,11 L22,11 Z M35,11 L35,48.0031246 C35,48.5467697 35.4490268,49 36.0029293,49 L40.9970707,49 C41.5621186,49 42,48.5536837 42,48.0031246 L42,11 L35,11 Z M61,11 L61,48.0031246 C61,48.5467697 61.4490268,49 62.0029293,49 L66.9970707,49 C67.5621186,49 68,48.5536837 68,48.0031246 L68,11 L61,11 Z" id="Combined-Shape" fill="#0AD1BD" transform="translate(43.000000, 43.000000) rotate(-5.000000) translate(-43.000000, -43.000000) "></path>
            <path d="M70,67 C70,68.654 68.654,70 67,70 L62,70 L62,46 L64,46 C64.55,46 65,45.55 65,45 L65,10 L67,10 C68.654,10 70,11.346 70,13 L70,67 Z M10,67 L10,13 C10,11.346 11.346,10 13,10 L19,10 L19,45 C19,45.55 19.45,46 20,46 L22,46 L22,70 L13,70 C11.346,70 10,68.654 10,67 L10,67 Z M32,10 L32,45 C32,45.55 32.45,46 33,46 L35,46 L35,70 L23,70 L23,46 L25,46 C25.55,46 26,45.55 26,45 L26,10 L32,10 Z M48,10 L48,70 L36,70 L36,46 L38,46 C38.55,46 39,45.55 39,45 L39,10 L48,10 Z M59,46 L61,46 L61,70 L49,70 L49,10 L58,10 L58,45 C58,45.55 58.45,46 59,46 L59,46 Z M67,8 L13,8 C10.239,8 8,10.239 8,13 L8,67 C8,69.761 10.239,72 13,72 L67,72 C69.761,72 72,69.761 72,67 L72,13 C72,10.239 69.761,8 67,8 L67,8 Z" id="Piano" fill="#000000" transform="translate(40.000000, 40.000000) rotate(-7.000000) translate(-40.000000, -40.000000) "></path>
        </g>
    </g>
</svg>