<?xml version="1.0" encoding="UTF-8"?>
<svg width="80px" height="80px" viewBox="0 0 80 80" version="1.1" xmlns="http://www.w3.org/2000/svg" xmlns:xlink="http://www.w3.org/1999/xlink">
    <!-- Generator: Sketch 43.2 (39069) - http://www.bohemiancoding.com/sketch -->
    <title>tape</title>
    <desc>Created with Sketch.</desc>
    <defs></defs>
    <g id="Page-2" stroke="none" stroke-width="1" fill="none" fill-rule="evenodd">
        <g id="tape">
            <path d="M10,25.0045213 C10,22.2406005 12.2402674,20 14.9953151,20 L69.0046849,20 C71.7635213,20 74,22.2424579 74,25.0045213 L74,58.9954787 C74,61.7593995 71.7597326,64 69.0046849,64 L14.9953151,64 C12.2364787,64 10,61.7575421 10,58.9954787 L10,25.0045213 Z M23,39 C23,41.7558048 25.241671,44 28.0069123,44 L55.9930877,44 C58.7647948,44 61,41.7614237 61,39 C61,36.2441952 58.758329,34 55.9930877,34 L28.0069123,34 C25.2352052,34 23,36.2385763 23,39 Z M23,53 L19.6372226,64 L64.3499985,64 L61,53 L23,53 Z" id="Combined-Shape" fill="#0AD1BD" transform="translate(42.000000, 42.000000) rotate(-5.000000) translate(-42.000000, -42.000000) "></path>
            <path d="M12,57 C12.552,57 13,56.552 13,56 C13,55.448 12.552,55 12,55 C11.448,55 11,55.448 11,56 C11,56.552 11.448,57 12,57 L12,57 Z M12,21 C11.448,21 11,21.448 11,22 C11,22.552 11.448,23 12,23 C12.552,23 13,22.552 13,22 C13,21.448 12.552,21 12,21 L12,21 Z M66,57 C66.552,57 67,56.552 67,56 C67,55.448 66.552,55 66,55 C65.448,55 65,55.448 65,56 C65,56.552 65.448,57 66,57 L66,57 Z M66,21 C65.448,21 65,21.448 65,22 C65,22.552 65.448,23 66,23 C66.552,23 67,22.552 67,22 C67,21.448 66.552,21 66,21 L66,21 Z M53,39 C51.346,39 50,37.654 50,36 C50,34.346 51.346,33 53,33 C54.654,33 56,34.346 56,36 C56,37.654 54.654,39 53,39 L53,39 Z M27.62,39 C28.459,38.267 29,37.202 29,36 C29,34.798 28.459,33.733 27.62,33 L50.38,33 C49.541,33.733 49,34.798 49,36 C49,37.202 49.541,38.267 50.38,39 L27.62,39 Z M25,39 C23.346,39 22,37.654 22,36 C22,34.346 23.346,33 25,33 C26.654,33 28,34.346 28,36 C28,37.654 26.654,39 25,39 L25,39 Z M53,31 L25,31 C22.25,31 20,33.25 20,36 C20,38.75 22.25,41 25,41 L53,41 C55.75,41 58,38.75 58,36 C58,33.25 55.75,31 53,31 L53,31 Z M69,47 L9,47 L9,22 C9,20.346 10.346,19 12,19 L66,19 C67.654,19 69,20.346 69,22 L69,47 Z M69,56 C69,57.654 67.654,59 66,59 L60.7,59 L58,50 L20,50 L17.3,59 L12,59 C10.346,59 9,57.654 9,56 L9,48 L69,48 L69,56 Z M18.344,59 L20.744,51 L57.256,51 L59.656,59 L18.344,59 Z M66,17 L12,17 C9.25,17 7,19.25 7,22 L7,47 L7,48 L7,56 C7,58.75 9.25,61 12,61 L66,61 C68.75,61 71,58.75 71,56 L71,22 C71,19.25 68.75,17 66,17 L66,17 Z" id="Cassette-Tape" fill="#000000" transform="translate(39.000000, 39.000000) rotate(-7.000000) translate(-39.000000, -39.000000) "></path>
        </g>
    </g>
</svg>